<svg xmlns="http://www.w3.org/2000/svg" width="1200" height="800" viewBox="0 0 1200 800" role="img" aria-label="TikTok Shop Summit 2026 placeholder">
  <defs>
    <linearGradient id="bg" x1="0" y1="0" x2="1" y2="1">
      <stop offset="0%" stop-color="#111" />
      <stop offset="100%" stop-color="#1a1a1a" />
    </linearGradient>
    <linearGradient id="accent" x1="0" y1="0" x2="1" y2="1">
      <stop offset="0%" stop-color="#f7005b" />
      <stop offset="100%" stop-color="#25f4ee" />
    </linearGradient>
  </defs>
  <rect width="1200" height="800" rx="40" fill="url(#bg)" />
  <rect x="80" y="80" width="1040" height="640" rx="32" fill="none" stroke="rgba(255,255,255,0.12)" stroke-width="4" />
  <circle cx="180" cy="180" r="68" fill="url(#accent)" opacity="0.75" />
  <path d="M174 118c-20 0-34 14-34 34v84h28v-82c0-3 2-6 6-6 3 0 6 2 6 6v90c0 3 2 6 6 6h28v-84c0-20-14-34-34-34z" fill="#fff" />
  <path d="M218 226c22 0 40-18 40-40v-4h-24v4c0 9-7 16-16 16-9 0-16-7-16-16v-42h-24v42c0 22 18 40 40 40z" fill="#fff" />
  <text x="340" y="260" fill="#fff" font-family="Montserrat, sans-serif" font-size="52" font-weight="700">TikTok Shop Summit 2026</text>
  <text x="340" y="330" fill="#fff" opacity="0.8" font-family="Montserrat, sans-serif" font-size="32">BGC, Taguig City</text>
  <text x="340" y="420" fill="#fff" opacity="0.6" font-family="Montserrat, sans-serif" font-size="28">Placeholder image ready for upload.</text>
  <line x1="340" y1="450" x2="760" y2="450" stroke="rgba(255,255,255,0.15)" stroke-width="2" />
</svg>
